<svg xmlns="http://www.w3.org/2000/svg" viewBox="0 0 237.19 35.71"><defs><style>.cls-1{fill:#0f69b0;}.cls-2{fill:#6b6b6b;}</style></defs><g id="Layer_2" data-name="Layer 2"><g id="Layer_1-2" data-name="Layer 1"><path class="cls-1" d="M199.31,31l-.32,3.3h-6.08V.29h7.37V13.51a8.31,8.31,0,0,1,4.82-2.94c5.16-1.09,9.55,1.35,11.2,6.36a15.59,15.59,0,0,1-.78,12.3,10.1,10.1,0,0,1-12.72,4.9A7.65,7.65,0,0,1,199.31,31Zm.89-8.41h.14c0,.79-.06,1.58,0,2.36a4.5,4.5,0,0,0,3.46,4,4.38,4.38,0,0,0,4.9-2.19,9,9,0,0,0,0-8.53A4.33,4.33,0,0,0,204.24,16a4.42,4.42,0,0,0-3.75,3.48A26.79,26.79,0,0,0,200.2,22.57Z"/><path class="cls-2" d="M55.3.36h7.37V13.57c.11,0,.16,0,.18,0a8.46,8.46,0,0,1,7.51-3.13A9,9,0,0,1,78.69,17,15.55,15.55,0,0,1,78,29.23a10.08,10.08,0,0,1-12.35,5.13c-1.5-.52-2.17-1.1-3.91-3.21l-.31,3.18H55.3ZM67.65,16c-2.53,0-4.47,1.46-4.77,3.57a33.48,33.48,0,0,0-.15,5,4.49,4.49,0,0,0,8.6,1.84,9.3,9.3,0,0,0,0-7.74A4.18,4.18,0,0,0,67.65,16Z"/><path class="cls-2" d="M123.54,18.68A2.35,2.35,0,0,0,122.2,16a7.6,7.6,0,0,0-2.45-.56,12.94,12.94,0,0,0-6.86,1.66c-.45-1.55-.9-3.07-1.35-4.64a13.8,13.8,0,0,1,3.7-1.44,19,19,0,0,1,8.88-.32,8.07,8.07,0,0,1,6.6,7.08,20.5,20.5,0,0,1,.22,2.83c0,3.44,0,6.87.06,10.31,0,1.12.17,2.25.26,3.43h-3.49c-.79,0-1.58,0-2.37,0-.49,0-.74-.09-.78-.64a5.94,5.94,0,0,0-.5-1.83,2.37,2.37,0,0,1-.32.5,8.93,8.93,0,0,1-10.74,1.22,6.85,6.85,0,0,1-3.16-6.65c.3-4,2.84-6.1,6.38-7.28a20.55,20.55,0,0,1,6.32-1Zm.36,6.16h0c0-.39,0-.77,0-1.16s-.1-.48-.45-.46c-.5,0-1,0-1.51.1a7,7,0,0,0-3.78,1.29,2.93,2.93,0,0,0-1,3,2.36,2.36,0,0,0,1.8,1.92,3.9,3.9,0,0,0,4.85-3.13C123.88,25.89,123.88,25.36,123.9,24.84Z"/><path class="cls-1" d="M190.23,34.3h-6.52l-.48-2.42c-.23.25-.38.43-.55.59-2.81,2.86-8.57,3.3-11.62.39a7.05,7.05,0,0,1-2.23-5.49c.08-4.28,3-6.71,6.79-7.84a22.12,22.12,0,0,1,6.16-.85h.71a2.34,2.34,0,0,0-1.18-2.63,5.93,5.93,0,0,0-2-.61,12.83,12.83,0,0,0-7.13,1.48l-.33.15-1.34-4.64c.31-.16.6-.33.91-.46a18.94,18.94,0,0,1,12.14-1.16c3.54.88,5.47,3.32,6.1,6.83a18.64,18.64,0,0,1,.25,3.08c0,3.49,0,7,.06,10.49C190,32.23,190.13,33.25,190.23,34.3Zm-7.47-11a10,10,0,0,0-4.77.77,4.26,4.26,0,0,0-1.18.83,2.87,2.87,0,0,0,.75,4.52,3.85,3.85,0,0,0,5.18-2.87A27,27,0,0,0,182.76,23.29Z"/><path class="cls-1" d="M153.47,28.14h12.82v6.14H146.21V.29h7.26Z"/><path class="cls-1" d="M220.41,27.84A14.27,14.27,0,0,0,226,29.52a10.61,10.61,0,0,0,2.69-.23A1.51,1.51,0,0,0,230,27.94a1.65,1.65,0,0,0-.76-1.84c-.84-.46-1.75-.81-2.62-1.21A33.88,33.88,0,0,1,223,23.24c-5.07-3.08-3.78-8.92-.41-11.37a11.66,11.66,0,0,1,7.88-2,16.35,16.35,0,0,1,5,1.09c.46.18.65.37.48.92-.38,1.32-.67,2.66-1,4,0,.15-.1.3-.1.32-1.41-.37-2.76-.8-4.14-1a6.94,6.94,0,0,0-2.4.09,1.71,1.71,0,0,0-1.48,1.48,1.64,1.64,0,0,0,1,1.77,33,33,0,0,0,3.06,1.29,11,11,0,0,1,4.44,2.61,7.1,7.1,0,0,1-1.56,10.77,12.35,12.35,0,0,1-6.13,1.65,17.91,17.91,0,0,1-8-1.4c-.44-.19-.55-.39-.43-.86C219.64,31,220,29.43,220.41,27.84Z"/><path class="cls-2" d="M107.21,28.18c0,1.75,0,3.47,0,5.18,0,.39-.25.44-.5.47-1.22.17-2.44.33-3.66.44a8.51,8.51,0,0,1-4.19-.71,6.05,6.05,0,0,1-3.59-4.91A20,20,0,0,1,95,25.46c0-3,0-6.07,0-9.1,0-.55-.17-.7-.69-.67-.79,0-1.58,0-2.41,0V10.35H95V8.62c0-.77,0-1.54,0-2.3a.61.61,0,0,1,.29-.49c2.19-.62,4.39-1.22,6.59-1.82a1.06,1.06,0,0,1,.3,0v6.29h5.18v5.37h-5.1a1.41,1.41,0,0,0-.08.28c0,3.14,0,6.27,0,9.4a3.94,3.94,0,0,0,.16,1,2.52,2.52,0,0,0,2.92,2C105.88,28.31,106.48,28.24,107.21,28.18Z"/><path class="cls-2" d="M133.88.27h7.23v34h-7.23Z"/><path class="cls-2" d="M52.63,17.24a26.64,26.64,0,0,0-3.1,0,4.31,4.31,0,0,0-3.92,4.24c-.09,4-.07,8-.1,11.94v.83H38.19V10.87a3.55,3.55,0,0,1,.41,0c1.74,0,3.48,0,5.22,0,.41,0,.55.12.57.54,0,1.26.16,2.52.31,3.8a8.17,8.17,0,0,1,3.08-3.85,6.43,6.43,0,0,1,4.85-.85Z"/><path class="cls-2" d="M82.05,10.86h7.23V34.28H82.05Z"/><path class="cls-2" d="M85.67,7.79a3.78,3.78,0,0,1-4.06-3.93,4.11,4.11,0,0,1,8.2.08A3.81,3.81,0,0,1,85.67,7.79Z"/><path class="cls-2" d="M0,18.43A16.85,16.85,0,0,1,10.78,2.49,19.5,19.5,0,0,1,18.1,1.16a19.49,19.49,0,0,1,7.29,1.33,17.35,17.35,0,0,1,5.75,3.66,17,17,0,0,1,5.1,12.28,17,17,0,0,1-5.1,12.29,17.35,17.35,0,0,1-5.75,3.66,19.69,19.69,0,0,1-7.29,1.33,19.7,19.7,0,0,1-7.32-1.33A16.94,16.94,0,0,1,0,18.43Zm8.9,0A8.76,8.76,0,0,0,9.63,22a9.21,9.21,0,0,0,2,2.86,9.11,9.11,0,0,0,2.93,1.89,9.66,9.66,0,0,0,7.07,0,9.2,9.2,0,0,0,2.95-1.89,8.9,8.9,0,0,0,0-12.93,9.2,9.2,0,0,0-2.95-1.89,9.66,9.66,0,0,0-7.07,0A9.11,9.11,0,0,0,11.63,12a9.21,9.21,0,0,0-2,2.86A8.74,8.74,0,0,0,8.9,18.43Z"/></g></g></svg>