<svg xmlns="http://www.w3.org/2000/svg" width="2127.609" height="472.047"><defs><clipPath clipPathUnits="userSpaceOnUse" id="a"><path d="M0 2000h2000V0H0z"/></clipPath></defs><g clip-path="url(#a)" transform="matrix(1.33333 0 0 -1.33333 -269.528 1569.357)"><path d="M439.217 1046.319c22.981-29.751 20.902-72.74-6.375-100.017-27.265-27.268-70.25-29.351-100-6.371l-52.169-52.168c4.575-10.14 2.735-22.492-5.584-30.814-10.747-10.736-28.219-10.736-38.954 0-5.2 5.205-8.068 12.115-8.068 19.477 0 7.353 2.868 14.272 8.068 19.47 5.201 5.207 12.112 8.072 19.475 8.072 3.971 0 7.804-.858 11.317-2.446l52.128 52.12c-10.239 13.225-15.805 29.355-15.805 46.342 0 20.28 7.9 39.338 22.232 53.682 14.341 14.338 33.41 22.24 53.686 22.24 16.99 0 33.117-5.57 46.343-15.797l52.127 52.118a27.479 27.479 0 00-2.45 11.322c0 7.354 2.867 14.274 8.068 19.479 5.201 5.197 12.12 8.069 19.474 8.069 7.36 0 14.27-2.872 19.474-8.07 10.74-10.742 10.74-28.212 0-38.956-8.322-8.322-20.672-10.162-30.82-5.585zm101.32 39.426c20.846 20.85 20.837 54.769 0 75.61-10.102 10.1-23.525 15.663-37.807 15.663-14.285 0-27.71-5.562-37.803-15.663-10.099-10.1-15.662-23.515-15.662-37.806 0-3.275.33-6.49.898-9.647-51.813 32.355-120.88 26.049-165.915-18.994-45.04-45.033-51.342-114.1-18.99-165.92-3.154.572-6.375.907-9.648.907-14.285 0-27.71-5.571-37.81-15.668-10.092-10.094-15.654-23.53-15.654-37.801 0-14.282 5.562-27.714 15.654-37.807 20.847-20.848 54.768-20.848 75.616 0 12.89 12.886 17.784 30.77 14.738 47.465 51.81-32.365 120.893-26.065 165.938 18.976 45.045 45.05 51.35 114.132 18.978 165.942 16.702-3.038 34.581 1.856 47.467 14.743" fill="#191919"/><path d="M379.18 956.503c-11.632 0-22.548 4.517-30.737 12.713-8.256 8.236-12.778 19.16-12.778 30.79 0 11.616 4.52 22.535 12.734 30.746 8.216 8.212 19.146 12.735 30.781 12.735 11.635 0 22.563-4.523 30.776-12.735 16.967-16.962 16.967-44.565 0-61.522-8.2-8.202-19.132-12.727-30.776-12.727M529.336 964.692c0 21.49-.298 35.513-1.195 48.043h38.795l1.79-27.155h1.196c7.46 21.486 25.067 30.44 39.392 30.44 4.177 0 6.27-.296 9.55-.893v-42.68c-3.88.596-7.46 1.197-12.539 1.197-16.708 0-28.048-8.656-31.033-22.98-.597-2.983-.897-6.267-.897-10.147v-73.713h-45.357zM681.112 928.437c0-2.987.295-5.668.894-8.062 2.985-11.933 13.43-21.49 26.56-21.49 19.396 0 31.336 14.932 31.336 41.191 0 22.68-10.144 40.583-31.336 40.583-12.234 0-23.575-9.254-26.56-22.386-.6-2.682-.894-5.367-.894-8.356zm-45.363 149.81h45.363v-83.26h.597c8.653 12.534 23.873 20.589 44.166 20.589 34.917 0 60.284-28.945 59.985-73.71 0-52.527-33.13-78.793-66.55-78.793-17.014 0-33.723 6.273-43.867 23.586h-.601l-1.788-20.295h-38.498c.598 9.546 1.193 27.155 1.193 43.567zM801.553 1012.736h45.364V866.805h-45.364zm22.384 19.103c-15.217 0-25.07 10.74-25.07 24.175 0 13.722 10.149 24.169 25.667 24.169 15.518 0 25.071-10.447 25.371-24.169 0-13.435-9.853-24.175-25.669-24.175zM926.471 1055.718v-39.693h32.533v-33.427h-32.533v-53.122c0-17.603 4.477-25.659 17.91-25.659 6.265 0 9.251.296 13.431 1.19l.3-34.316c-5.675-2.09-16.712-3.887-29.249-3.887-14.626 0-26.856 5.08-34.322 12.542-8.355 8.653-12.537 22.676-12.537 43.267v59.985H862.61v33.427h19.394v27.458zM1061.834 935.748c-23.871 0-42.377-5.67-42.377-22.982 0-11.634 7.758-17.304 17.904-17.304 11.047 0 20.594 7.46 23.578 16.705.598 2.387.895 5.072.895 7.76zm43.869-33.726c0-13.727.596-27.157 2.387-35.21h-40.883l-2.685 14.615h-.897c-9.551-11.635-24.467-17.905-41.779-17.905-29.543 0-47.148 21.495-47.148 44.767 0 37.903 34.015 55.808 85.646 55.808v1.787c0 7.76-4.178 18.802-26.561 18.802-14.92 0-30.744-5.071-40.287-10.741l-8.36 28.953c10.149 5.668 30.145 13.127 56.706 13.127 48.644 0 63.861-28.651 63.861-62.971zM1123.785 1078.696h45.359V866.805h-45.359zM1460.096 935.748c-23.877 0-42.38-5.676-42.38-22.991 0-11.631 7.76-17.301 17.909-17.301 11.037 0 20.584 7.458 23.573 16.711.597 2.387.898 5.067.898 7.76zm43.867-33.732c0-13.721.59-27.156 2.385-35.211h-40.883l-2.687 14.622h-.901c-9.54-11.639-24.467-17.905-41.777-17.905-29.541 0-47.15 21.489-47.15 44.767 0 37.897 34.023 55.808 85.652 55.808v1.787c0 7.76-4.174 18.796-26.56 18.796-14.923 0-30.741-5.065-40.284-10.74l-8.361 28.952c10.15 5.669 30.138 13.127 56.705 13.127 48.639 0 63.86-28.645 63.86-62.971zM1568.596 928.879c0-2.981.3-5.668.896-8.06 2.989-11.933 13.438-21.488 26.563-21.488 19.396 0 31.332 14.928 31.332 41.187 0 22.682-10.146 40.585-31.332 40.585-12.234 0-23.574-9.254-26.563-22.38-.595-2.686-.896-5.373-.896-8.356zm-45.363 149.81h45.363v-83.26h.594c8.66 12.536 23.877 20.59 44.174 20.59 34.912 0 60.277-28.948 59.982-73.71 0-52.528-33.125-78.786-66.55-78.786-17.014 0-33.721 6.265-43.87 23.578h-.594l-1.791-20.296h-38.494c.588 9.55 1.186 27.164 1.186 43.567zM1277.28 905.006v173.69h-45.364V866.805h125.338v38.2zM1693.86 907.004c8.52-5.171 26.15-10.95 39.83-10.95 13.995 0 19.774 4.56 19.774 12.16 0 7.914-4.564 11.566-21.587 17.33-31.018 10.042-42.885 27.074-42.579 44.404 0 27.969 23.723 48.956 60.514 48.956 17.332 0 32.537-4.256 41.66-8.817l-7.904-31.63c-6.69 3.346-19.762 8.217-32.23 8.217-11.254 0-17.649-4.565-17.649-11.86 0-7.297 5.781-10.952 24.027-17.332 28.284-9.427 39.83-24.023 40.137-45.616 0-27.974-21.586-48.343-64.164-48.343-19.457 0-36.783 4.555-48.035 10.64z" fill="#191919"/></g></svg>