<?xml version="1.0" encoding="UTF-8" standalone="no"?>
<!-- Created with Inkscape (http://www.inkscape.org/) -->

<svg
   xmlns:dc="http://purl.org/dc/elements/1.1/"
   xmlns:cc="http://creativecommons.org/ns#"
   xmlns:rdf="http://www.w3.org/1999/02/22-rdf-syntax-ns#"
   xmlns:svg="http://www.w3.org/2000/svg"
   xmlns="http://www.w3.org/2000/svg"
   xmlns:sodipodi="http://sodipodi.sourceforge.net/DTD/sodipodi-0.dtd"
   xmlns:inkscape="http://www.inkscape.org/namespaces/inkscape"
   width="51.328224mm"
   height="16.353775mm"
   viewBox="0 0 51.328224 16.353775"
   version="1.1"
   id="svg8"
   inkscape:version="0.92.4 (5da689c313, 2019-01-14)"
   sodipodi:docname="logo.svg"
   inkscape:export-filename="C:\Users\jakan\Documents\Programming\webdev\yasbil-dashboard\src\assets\g1567.png"
   inkscape:export-xdpi="96"
   inkscape:export-ydpi="96">
  <defs
     id="defs2" />
  <sodipodi:namedview
     id="base"
     pagecolor="#ffffff"
     bordercolor="#666666"
     borderopacity="1.0"
     inkscape:pageopacity="0.0"
     inkscape:pageshadow="2"
     inkscape:zoom="1.979899"
     inkscape:cx="-3.3104395"
     inkscape:cy="-29.041852"
     inkscape:document-units="mm"
     inkscape:current-layer="layer1"
     showgrid="false"
     inkscape:window-width="1920"
     inkscape:window-height="1017"
     inkscape:window-x="-8"
     inkscape:window-y="-8"
     inkscape:window-maximized="1"
     inkscape:snap-bbox="true"
     inkscape:snap-bbox-midpoints="true"
     fit-margin-top="0"
     fit-margin-left="0"
     fit-margin-right="0"
     fit-margin-bottom="0" />
  <metadata
     id="metadata5">
    <rdf:RDF>
      <cc:Work
         rdf:about="">
        <dc:format>image/svg+xml</dc:format>
        <dc:type
           rdf:resource="http://purl.org/dc/dcmitype/StillImage" />
        <dc:title></dc:title>
      </cc:Work>
    </rdf:RDF>
  </metadata>
  <g
     inkscape:label="Layer 1"
     inkscape:groupmode="layer"
     id="layer1"
     transform="translate(-80.222282,-121.99385)">
    <rect
       style="opacity:1;fill:#0496ff;fill-opacity:1;stroke:none;stroke-width:2.29870462;stroke-linecap:square;stroke-linejoin:round;stroke-miterlimit:31.20000076;stroke-dasharray:none;stroke-opacity:1;paint-order:markers stroke fill"
       id="rect1444"
       width="51.328224"
       height="16.353775"
       x="80.222282"
       y="121.99385"
       ry="9.9384842"
       inkscape:export-xdpi="96"
       inkscape:export-ydpi="96" />
    <g
       aria-label="STELLARSHIP"
       style="font-style:normal;font-weight:normal;font-size:10.58333302px;line-height:1.25;font-family:sans-serif;letter-spacing:0px;word-spacing:0px;fill:#ffffff;fill-opacity:1;stroke:none;stroke-width:0.26458332"
       id="text1436">
      <path
         d="m 85.341087,127.62545 0.889,-0.889 h 1.862666 l 0.878417,0.889 v 1.25942 h -1.217083 v -0.84667 h -1.2065 v 1.48167 l 1.407583,0.13758 1.016,1.016 v 2.07434 l -0.878417,0.87841 h -1.862666 l -0.889,-0.87841 v -1.28059 h 1.2065 v 0.85725 h 1.2065 v -1.50283 l -1.397,-0.127 -1.016,-1.016 z"
         style="font-style:normal;font-variant:normal;font-weight:normal;font-stretch:normal;font-family:'College TM';-inkscape-font-specification:'College TM';fill:#ffffff;stroke-width:0.26458332"
         id="path1520" />
      <path
         d="m 89.380447,126.73645 h 3.33375 v 1.30175 h -0.963083 v 5.588 h -1.42875 v -5.588 h -0.941917 z"
         style="font-style:normal;font-variant:normal;font-weight:normal;font-stretch:normal;font-family:'College TM';-inkscape-font-specification:'College TM';fill:#ffffff;stroke-width:0.26458332"
         id="path1522" />
      <path
         d="m 93.155555,126.73645 h 2.973917 v 1.30175 h -1.545167 v 1.28059 h 1.259417 v 1.31233 h -1.259417 v 1.69333 h 1.545167 v 1.30175 h -2.973917 z"
         style="font-style:normal;font-variant:normal;font-weight:normal;font-stretch:normal;font-family:'College TM';-inkscape-font-specification:'College TM';fill:#ffffff;stroke-width:0.26458332"
         id="path1524" />
      <path
         d="m 96.566199,126.71529 h 1.407584 v 5.59858 h 1.608666 v 1.31233 h -3.01625 z"
         style="font-style:normal;font-variant:normal;font-weight:normal;font-stretch:normal;font-family:'College TM';-inkscape-font-specification:'College TM';fill:#ffffff;stroke-width:0.26458332"
         id="path1526" />
      <path
         d="m 99.935503,126.71529 h 1.407587 v 5.59858 h 1.60866 v 1.31233 h -3.016247 z"
         style="font-style:normal;font-variant:normal;font-weight:normal;font-stretch:normal;font-family:'College TM';-inkscape-font-specification:'College TM';fill:#ffffff;stroke-width:0.26458332"
         id="path1528" />
      <path
         d="m 104.17264,126.73645 h 2.08492 l 0.98425,6.88975 h -1.28059 l -0.13758,-1.21708 h -1.22767 l -0.10583,1.21708 h -1.28058 z m 0.89958,1.28059 -0.3175,2.95275 h 0.92075 l -0.3175,-2.95275 z"
         style="font-style:normal;font-variant:normal;font-weight:normal;font-stretch:normal;font-family:'College TM';-inkscape-font-specification:'College TM';fill:#ffffff;stroke-width:0.26458332"
         id="path1530" />
      <path
         d="m 107.68697,133.6262 v -6.88975 h 2.7305 l 0.87841,0.889 v 1.79917 l -0.68791,0.67733 0.68791,0.6985 v 2.82575 h -1.25941 v -2.80458 h -1.143 v 2.80458 z m 1.2065,-5.56683 v 1.44992 h 1.143 v -1.44992 z"
         style="font-style:normal;font-variant:normal;font-weight:normal;font-stretch:normal;font-family:'College TM';-inkscape-font-specification:'College TM';fill:#ffffff;stroke-width:0.26458332"
         id="path1532" />
      <path
         d="m 111.79942,127.62545 0.889,-0.889 h 1.86267 l 0.87841,0.889 v 1.25942 h -1.21708 v -0.84667 h -1.2065 v 1.48167 l 1.40758,0.13758 1.016,1.016 v 2.07434 l -0.87841,0.87841 h -1.86267 l -0.889,-0.87841 v -1.28059 h 1.2065 v 0.85725 h 1.2065 v -1.50283 l -1.397,-0.127 -1.016,-1.016 z"
         style="font-style:normal;font-variant:normal;font-weight:normal;font-stretch:normal;font-family:'College TM';-inkscape-font-specification:'College TM';fill:#ffffff;stroke-width:0.26458332"
         id="path1534" />
      <path
         d="m 115.9552,126.73645 h 1.42875 v 2.58234 h 1.27 v -2.58234 h 1.42875 v 6.88975 h -1.42875 v -2.99508 h -1.27 v 2.99508 h -1.42875 z"
         style="font-style:normal;font-variant:normal;font-weight:normal;font-stretch:normal;font-family:'College TM';-inkscape-font-specification:'College TM';fill:#ffffff;stroke-width:0.26458332"
         id="path1536" />
      <path
         d="m 120.62674,126.73645 h 1.42875 v 6.88975 h -1.42875 z"
         style="font-style:normal;font-variant:normal;font-weight:normal;font-stretch:normal;font-family:'College TM';-inkscape-font-specification:'College TM';fill:#ffffff;stroke-width:0.26458332"
         id="path1538" />
      <path
         d="m 122.61112,126.73645 h 2.921 l 0.89958,0.889 v 2.51884 l -0.89958,0.889 h -1.7145 v 2.59291 h -1.2065 z m 1.2065,1.30175 v 1.69334 h 1.2065 v -1.69334 z"
         style="font-style:normal;font-variant:normal;font-weight:normal;font-stretch:normal;font-family:'College TM';-inkscape-font-specification:'College TM';fill:#ffffff;stroke-width:0.26458332"
         id="path1540" />
    </g>
  </g>
</svg>
