<svg xmlns="http://www.w3.org/2000/svg" height="1271.405" width="1271.359"><defs><clipPath id="a" clipPathUnits="userSpaceOnUse"><path d="M0 2000h2000V0H0z"/></clipPath></defs><g clip-path="url(#a)" transform="matrix(1.33333 0 0 -1.33333 -697.654 1969.036)"><path d="M1161.766 1124.755c61.896-80.132 56.299-195.914-17.171-269.386-73.434-73.442-189.215-79.052-269.34-17.16l-140.51-140.51c12.322-27.306 7.367-60.578-15.04-82.99-28.946-28.918-76.003-28.918-104.917 0-14.006 14.019-21.732 32.627-21.732 52.458 0 19.805 7.726 38.44 21.732 52.439 14.006 14.025 32.623 21.742 52.453 21.742 10.696 0 21.018-2.313 30.482-6.59l140.399 140.38c-27.577 35.622-42.567 79.066-42.567 124.819 0 54.623 21.274 105.952 59.879 144.587 38.624 38.616 89.986 59.9 144.596 59.9 45.76 0 89.196-15.002 124.82-42.547l140.397 140.375c-4.27 9.489-6.601 19.79-6.601 30.495 0 19.807 7.725 38.445 21.734 52.464 14.005 13.998 32.642 21.733 52.45 21.733 19.82 0 38.437-7.735 52.453-21.733 28.92-28.935 28.92-75.99 0-104.926-22.415-22.417-55.678-27.371-83.012-15.043zm272.893 106.189c56.145 56.159 56.124 147.515 0 203.648-27.208 27.206-63.362 42.185-101.83 42.185-38.475 0-74.63-14.98-101.817-42.185-27.201-27.201-42.184-63.336-42.184-101.825 0-8.824.889-17.478 2.419-25.985-139.553 87.146-325.577 70.16-446.874-51.158C623.06 1134.332 606.09 948.308 693.227 808.74c-8.494 1.536-17.172 2.439-25.986 2.439-38.475 0-74.633-15.004-101.838-42.2-27.182-27.187-42.162-63.371-42.162-101.812 0-38.47 14.98-74.644 42.162-101.83 56.149-56.152 147.512-56.152 203.665 0 34.718 34.707 47.9 82.876 39.695 127.842 139.54-87.171 325.608-70.203 446.936 51.109 121.325 121.34 138.306 307.403 51.112 446.947 44.986-8.181 93.14 5 127.848 39.709" fill="#191919"/><path d="M1000.063 882.845c-31.33 0-60.73 12.166-82.787 34.24-22.237 22.185-34.417 51.61-34.417 82.933 0 31.285 12.171 60.693 34.297 82.809 22.128 22.12 51.567 34.3 82.906 34.3 31.34 0 60.771-12.18 82.892-34.3 45.7-45.686 45.7-120.032 0-165.704-22.087-22.09-51.531-34.278-82.891-34.278" fill="#191919"/></g></svg>